# Blender v3.1.2 OBJ File: ''
# www.blender.org
mtllib plasmaProj.mtl
o plasma_proj_Mesh.034
v 0.002978 -0.000040 0.313822
v -0.000218 0.019729 -0.047659
v 0.019307 -0.000048 -0.047832
v -0.000213 -0.019729 -0.047659
v -0.020150 -0.000030 -0.047483
v -0.000615 -0.000041 -0.093474
v 0.001341 0.047123 0.127662
v -0.045992 -0.000060 0.128080
v 0.001328 -0.047123 0.127662
v 0.048250 -0.000017 0.127247
v -0.000615 -0.000041 -0.093474
v 0.000782 0.073322 0.063968
v -0.072754 -0.000072 0.064618
v 0.000761 -0.073322 0.063968
v 0.073885 -0.000005 0.063322
v -0.000615 -0.000041 -0.093474
v 0.000426 0.103787 0.023237
v -0.103578 -0.000086 0.024157
v 0.000397 -0.103787 0.023238
v 0.103989 0.000009 0.022322
v -0.000646 -0.000088 -0.093474
v -0.032174 0.033369 0.127958
v 0.034658 0.033261 0.127367
v -0.031990 -0.033371 0.127956
v 0.034496 -0.033242 0.127369
v -0.000646 -0.000088 -0.093474
v -0.051271 0.051887 0.064428
v 0.052623 0.051785 0.063510
v -0.051081 -0.051895 0.064427
v 0.052466 -0.051760 0.063511
v -0.000646 -0.000088 -0.093474
v -0.073181 0.073418 0.023888
v 0.073807 0.073323 0.022589
v -0.072985 -0.073433 0.023887
v 0.073657 -0.073292 0.022590
vt 0.970560 0.521828
vt 0.033208 0.083802
vt 0.033208 0.522813
vt 0.033208 0.503304
vt 0.033208 0.942315
vt 0.033208 0.521828
vt 0.970560 0.083802
vt 0.970560 0.522813
vt 0.970560 0.503304
vt 0.970560 0.942315
vt 0.033208 0.521828
vt 0.970560 0.083802
vt 0.970560 0.522813
vt 0.970560 0.503304
vt 0.970560 0.942315
vt 0.033208 0.521828
vt 0.970560 0.083802
vt 0.970560 0.522813
vt 0.970560 0.503304
vt 0.970560 0.942315
vt 0.033208 0.521828
vt 0.970560 0.083802
vt 0.970560 0.522813
vt 0.970560 0.503304
vt 0.970560 0.942315
vt 0.033208 0.521828
vt 0.970560 0.083802
vt 0.970560 0.522813
vt 0.970560 0.503304
vt 0.970560 0.942315
vt 0.033208 0.521828
vt 0.970560 0.083802
vt 0.970560 0.522813
vt 0.970560 0.503304
vt 0.970560 0.942315
vn -0.7070 0.7071 0.0062
vn -0.7070 0.7067 -0.0262
vn -0.7071 -0.7071 0.0063
vn -0.7067 -0.7063 -0.0412
vn 0.7073 -0.7069 -0.0060
vn 0.7070 -0.7071 -0.0130
vn 0.7071 -0.7071 -0.0062
vn 0.7071 0.7071 0.0002
vn 0.7071 0.7071 -0.0063
vn -0.7071 0.7071 0.0062
vn -0.7067 -0.7063 -0.0411
vn 0.7070 -0.7071 -0.0129
vn 0.7071 -0.7071 -0.0063
vn 0.7071 0.7071 0.0003
vn -0.7071 -0.7071 0.0062
vn -0.7070 0.7068 -0.0262
vn 0.7071 -0.7070 -0.0130
vn 0.7071 0.7071 -0.0062
vn 0.0003 0.9888 -0.1494
vn -0.9901 -0.0027 -0.1406
vn 0.0006 -0.9889 -0.1486
vn 0.9875 -0.0024 -0.1575
vn -0.0018 0.9497 -0.3132
vn -0.9524 -0.0017 -0.3048
vn -0.0015 -0.9500 -0.3122
vn 0.9471 -0.0014 -0.3209
vn -0.0042 0.8463 -0.5326
vn -0.8510 -0.0011 -0.5252
vn -0.0039 -0.8469 -0.5317
vn 0.8419 -0.0009 -0.5396
g plasma_proj_Mesh.034_plasma.004
usemtl plasma.004
s off
f 1/1/1 3/2/2 2/3/2
f 1/1/3 4/4/4 3/2/4
f 5/5/5 4/4/6 1/1/7
f 2/3/8 5/5/8 1/1/9
f 6/6/10 8/7/2 7/8/2
f 6/6/3 9/9/4 8/7/11
f 10/10/12 9/9/6 6/6/13
f 7/8/14 10/10/14 6/6/9
f 11/11/10 13/12/2 12/13/2
f 11/11/15 14/14/4 13/12/4
f 15/15/6 14/14/6 11/11/7
f 12/13/8 15/15/8 11/11/9
f 16/16/10 18/17/2 17/18/16
f 16/16/3 19/19/11 18/17/11
f 20/20/6 19/19/17 16/16/13
f 17/18/8 20/20/8 16/16/18
f 21/21/19 22/22/19 23/23/19
f 21/21/20 24/24/20 22/22/20
f 25/25/21 24/24/21 21/21/21
f 23/23/22 25/25/22 21/21/22
f 26/26/23 27/27/23 28/28/23
f 26/26/24 29/29/24 27/27/24
f 30/30/25 29/29/25 26/26/25
f 28/28/26 30/30/26 26/26/26
f 31/31/27 32/32/27 33/33/27
f 31/31/28 34/34/28 32/32/28
f 35/35/29 34/34/29 31/31/29
f 33/33/30 35/35/30 31/31/30
