# Blender v3.1.2 OBJ File: ''
# www.blender.org
mtllib cube1Blue.mtl
o Cube.002
v 0.750000 0.750000 -0.750000
v -0.750000 0.750000 -0.750000
v -0.750000 0.750000 0.750000
v 0.750000 0.750000 0.750000
v 0.750000 -0.750000 0.750000
v -0.750000 -0.750000 0.750000
v -0.750000 -0.750000 -0.750000
v 0.750000 -0.750000 -0.750000
v 0.696000 0.750000 -0.696000
v -0.696000 0.750000 -0.696000
v -0.718822 0.718823 -0.718822
v 0.718822 0.718823 -0.718822
v 0.781177 0.781178 -0.781177
v -0.781177 0.781178 -0.781177
v -0.696000 0.750000 0.696000
v -0.718822 0.718822 0.718823
v -0.781177 0.781177 0.781178
v 0.696000 0.750000 0.696000
v 0.718822 0.718822 0.718823
v 0.781177 0.781177 0.781178
v 0.696000 -0.696000 0.750000
v 0.696000 0.696000 0.750000
v 0.718822 -0.718823 0.718822
v 0.781177 -0.781178 0.781177
v -0.696000 0.696000 0.750000
v -0.696000 -0.696000 0.750000
v -0.718822 -0.718823 0.718822
v -0.781177 -0.781178 0.781177
v -0.750000 -0.696000 0.696000
v -0.750000 0.696000 0.696000
v -0.750000 0.696000 -0.696000
v -0.750000 -0.696000 -0.696000
v -0.718822 -0.718822 -0.718823
v -0.781177 -0.781177 -0.781178
v -0.696000 -0.750000 -0.696000
v 0.696000 -0.750000 -0.696000
v 0.718822 -0.718822 -0.718823
v 0.781177 -0.781177 -0.781178
v 0.696000 -0.750000 0.696000
v -0.696000 -0.750000 0.696000
v 0.750000 -0.696000 -0.696000
v 0.750000 0.696000 -0.696000
v 0.750000 0.696000 0.696000
v 0.750000 -0.696000 0.696000
v -0.696000 -0.696000 -0.750000
v -0.696000 0.696000 -0.750000
v 0.696000 0.696000 -0.750000
v 0.696000 -0.696000 -0.750000
vt 0.625000 0.500000
vt 0.875000 0.500000
vt 0.875000 0.750000
vt 0.625000 0.750000
vt 0.375000 0.750000
vt 0.625000 1.000000
vt 0.375000 1.000000
vt 0.375000 0.000000
vt 0.625000 0.000000
vt 0.625000 0.250000
vt 0.375000 0.250000
vt 0.125000 0.500000
vt 0.375000 0.500000
vt 0.125000 0.750000
vt 0.625000 0.500000
vt 0.875000 0.500000
vt 0.875000 0.500000
vt 0.625000 0.500000
vt 0.625000 0.500000
vt 0.875000 0.500000
vt 0.875000 0.750000
vt 0.875000 0.750000
vt 0.875000 0.750000
vt 0.625000 0.750000
vt 0.625000 0.750000
vt 0.625000 0.750000
vt 0.375000 0.750000
vt 0.625000 0.750000
vt 0.375000 0.750000
vt 0.375000 0.750000
vt 0.625000 1.000000
vt 0.625000 1.000000
vt 0.625000 1.000000
vt 0.375000 1.000000
vt 0.375000 1.000000
vt 0.375000 1.000000
vt 0.375000 0.000000
vt 0.625000 0.000000
vt 0.625000 0.000000
vt 0.375000 0.000000
vt 0.375000 0.000000
vt 0.625000 0.000000
vt 0.625000 0.250000
vt 0.625000 0.250000
vt 0.625000 0.250000
vt 0.375000 0.250000
vt 0.375000 0.250000
vt 0.375000 0.250000
vt 0.125000 0.500000
vt 0.375000 0.500000
vt 0.375000 0.500000
vt 0.125000 0.500000
vt 0.125000 0.500000
vt 0.375000 0.500000
vt 0.375000 0.750000
vt 0.125000 0.750000
vt 0.125000 0.750000
vt 0.125000 0.750000
vt 0.375000 0.500000
vt 0.625000 0.500000
vt 0.625000 0.750000
vt 0.375000 0.750000
vt 0.375000 0.250000
vt 0.625000 0.250000
vt 0.625000 0.500000
vt 0.375000 0.500000
vn 0.0000 1.0000 0.0000
vn 0.0000 -0.0000 1.0000
vn -1.0000 0.0000 0.0000
vn 0.0000 -1.0000 -0.0000
vn 1.0000 -0.0000 0.0000
vn 0.0000 0.0000 -1.0000
vn 0.0000 -0.5907 0.8069
vn 0.0000 0.9391 0.3437
vn 0.8069 -0.5907 -0.0000
vn 0.3437 0.9391 0.0000
vn 0.0000 -0.5907 -0.8069
vn 0.0000 0.9391 -0.3437
vn -0.8069 -0.5907 -0.0000
vn -0.3437 0.9391 0.0000
vn -0.8069 0.0000 -0.5907
vn -0.3437 -0.0000 0.9391
vn 0.0000 -0.8069 -0.5907
vn 0.0000 -0.3437 0.9391
vn 0.8069 0.0000 -0.5907
vn 0.3437 -0.0000 0.9391
vn 0.0000 0.8069 -0.5907
vn 0.0000 0.3437 0.9391
vn 0.5907 0.0000 -0.8069
vn -0.9391 0.0000 -0.3437
vn 0.5907 -0.8069 -0.0000
vn -0.9391 -0.3437 -0.0000
vn 0.5907 -0.0000 0.8069
vn -0.9391 -0.0000 0.3437
vn 0.5907 0.8069 0.0000
vn -0.9391 0.3437 0.0000
vn 0.0000 0.5907 0.8069
vn 0.0000 -0.9391 0.3437
vn -0.8069 0.5907 0.0000
vn -0.3437 -0.9391 -0.0000
vn 0.0000 0.5907 -0.8069
vn 0.0000 -0.9391 -0.3437
vn 0.8069 0.5907 0.0000
vn 0.3437 -0.9391 -0.0000
vn -0.5907 -0.0000 0.8069
vn 0.9391 -0.0000 0.3437
vn -0.5907 -0.8069 -0.0000
vn 0.9391 -0.3437 -0.0000
vn -0.5907 0.0000 -0.8069
vn 0.9391 0.0000 -0.3437
vn -0.5907 0.8069 0.0000
vn 0.9391 0.3437 0.0000
vn 0.8069 -0.0000 0.5907
vn 0.3437 0.0000 -0.9391
vn 0.0000 -0.8069 0.5907
vn 0.0000 -0.3437 -0.9391
vn -0.8069 -0.0000 0.5907
vn -0.3437 0.0000 -0.9391
vn 0.0000 0.8069 0.5907
vn 0.0000 0.3437 -0.9391
g Cube.002_Cube.002_Material.001
usemtl Material.001
s 1
f 1/1/1 2/2/1 3/3/1 4/4/1
f 5/5/2 4/4/2 3/6/2 6/7/2
f 6/8/3 3/9/3 2/10/3 7/11/3
f 7/12/4 8/13/4 5/5/4 6/14/4
f 8/13/5 1/1/5 4/4/5 5/5/5
f 7/11/6 2/10/6 1/1/6 8/13/6
g Cube.002_Cube.002_Material.002
usemtl Material.002
f 9/15/7 10/16/7 11/17/7 12/18/7
f 10/16/8 9/15/8 13/19/8 14/20/8
f 10/16/9 15/21/9 16/22/9 11/17/9
f 15/21/10 10/16/10 14/20/10 17/23/10
f 15/21/11 18/24/11 19/25/11 16/22/11
f 18/24/12 15/21/12 17/23/12 20/26/12
f 18/24/13 9/15/13 12/18/13 19/25/13
f 9/15/14 18/24/14 20/26/14 13/19/14
f 21/27/15 22/28/15 19/25/15 23/29/15
f 22/28/16 21/27/16 24/30/16 20/26/16
f 22/28/17 25/31/17 16/32/17 19/25/17
f 25/31/18 22/28/18 20/26/18 17/33/18
f 25/31/19 26/34/19 27/35/19 16/32/19
f 26/34/20 25/31/20 17/33/20 28/36/20
f 26/34/21 21/27/21 23/29/21 27/35/21
f 21/27/22 26/34/22 28/36/22 24/30/22
f 29/37/23 30/38/23 16/39/23 27/40/23
f 30/38/24 29/37/24 28/41/24 17/42/24
f 30/38/25 31/43/25 11/44/25 16/39/25
f 31/43/26 30/38/26 17/42/26 14/45/26
f 31/43/27 32/46/27 33/47/27 11/44/27
f 32/46/28 31/43/28 14/45/28 34/48/28
f 32/46/29 29/37/29 27/40/29 33/47/29
f 29/37/30 32/46/30 34/48/30 28/41/30
f 35/49/31 36/50/31 37/51/31 33/52/31
f 36/50/32 35/49/32 34/53/32 38/54/32
f 36/50/33 39/55/33 23/29/33 37/51/33
f 39/55/34 36/50/34 38/54/34 24/30/34
f 39/55/35 40/56/35 27/57/35 23/29/35
f 40/56/36 39/55/36 24/30/36 28/58/36
f 40/56/37 35/49/37 33/52/37 27/57/37
f 35/49/38 40/56/38 28/58/38 34/53/38
f 41/59/39 42/60/39 12/18/39 37/51/39
f 42/60/40 41/59/40 38/54/40 13/19/40
f 42/60/41 43/61/41 19/25/41 12/18/41
f 43/61/42 42/60/42 13/19/42 20/26/42
f 43/61/43 44/62/43 23/29/43 19/25/43
f 44/62/44 43/61/44 20/26/44 24/30/44
f 44/62/45 41/59/45 37/51/45 23/29/45
f 41/59/46 44/62/46 24/30/46 38/54/46
f 45/63/47 46/64/47 11/44/47 33/47/47
f 46/64/48 45/63/48 34/48/48 14/45/48
f 46/64/49 47/65/49 12/18/49 11/44/49
f 47/65/50 46/64/50 14/45/50 13/19/50
f 47/65/51 48/66/51 37/51/51 12/18/51
f 48/66/52 47/65/52 13/19/52 38/54/52
f 48/66/53 45/63/53 33/47/53 37/51/53
f 45/63/54 48/66/54 38/54/54 34/48/54
